<?xml version="1.0" encoding="utf-8"?>
<svg viewBox="0 0 500 500" xmlns="http://www.w3.org/2000/svg">
  <title>Spotify icon</title>
  <path d="M 585.251 161.587 C 578.651 161.587 573.251 166.987 573.251 173.587 C 573.251 180.187 578.651 185.587 585.251 185.587 C 591.851 185.587 597.251 180.187 597.251 173.587 C 597.251 166.987 591.911 161.587 585.251 161.587 Z M 590.772 178.927 C 590.532 179.286 590.112 179.407 589.751 179.167 C 586.931 177.427 583.391 177.066 579.19 178.026 C 578.772 178.148 578.411 177.847 578.291 177.487 C 578.171 177.066 578.471 176.707 578.831 176.587 C 583.391 175.566 587.351 175.987 590.471 177.907 C 590.891 178.087 590.95 178.566 590.772 178.927 Z M 592.212 175.627 C 591.911 176.047 591.371 176.227 590.95 175.927 C 587.711 173.947 582.791 173.347 579.011 174.547 C 578.532 174.667 577.991 174.427 577.871 173.947 C 577.751 173.467 577.991 172.926 578.471 172.806 C 582.851 171.487 588.251 172.148 591.971 174.427 C 592.332 174.608 592.511 175.207 592.212 175.627 Z M 592.332 172.267 C 588.491 169.987 582.071 169.747 578.411 170.888 C 577.811 171.067 577.211 170.707 577.031 170.167 C 576.851 169.566 577.211 168.967 577.751 168.786 C 582.011 167.526 589.031 167.766 593.472 170.407 C 594.011 170.707 594.191 171.427 593.891 171.967 C 593.592 172.388 592.871 172.566 592.332 172.267 Z" style="fill: rgb(255, 255, 255);"/>
</svg>